# xmcd
#
# Track frame offsets:
#	150
#	60721
#	146869
#	214926
#	250568
#	292784
#
# Disc length: 4183 seconds
#
# Revision: 1
# Processed by: cddbd v1.5.2PL0 Copyright (c) Steve Scherf et al.
# Submitted via: audiograbber 1.83.01
#
DISCID=58105506
DTITLE=Grateful Dead - 73-03-22 Utica Memorial Auditorium, Utica NY
DYEAR=1900
DGENRE=
TTITLE0=Truckin
TTITLE1=The Other One
TTITLE2=Eyes Of The World
TTITLE3=China Doll
TTITLE4=Sugar Magnolia
TTITLE5=One More Saturday Night
EXTD=
EXTT0=
EXTT1=
EXTT2=
EXTT3=
EXTT4=
EXTT5=
PLAYORDER=
